<svg width="21" height="21" viewBox="0 0 21 21" fill="none" xmlns="http://www.w3.org/2000/svg">
<g clip-path="url(#clip0_39_553)">
<path fill-rule="evenodd" clip-rule="evenodd" d="M6.125 2.625C4.192 2.625 2.625 4.192 2.625 6.125V14.875C2.625 16.808 4.192 18.375 6.125 18.375H14.875C16.808 18.375 18.375 16.808 18.375 14.875V6.125C18.375 4.192 16.808 2.625 14.875 2.625H6.125ZM0.875 6.125C0.875 3.22551 3.22551 0.875 6.125 0.875H14.875C17.7745 0.875 20.125 3.22551 20.125 6.125V14.875C20.125 17.7745 17.7745 20.125 14.875 20.125H6.125C3.22551 20.125 0.875 17.7745 0.875 14.875V6.125Z" fill="#84AE61"/>
<path fill-rule="evenodd" clip-rule="evenodd" d="M10.9229 7.86556C10.3767 7.78457 9.81894 7.87786 9.32885 8.13215C8.83876 8.38645 8.44134 8.7888 8.1931 9.28199C7.94487 9.77517 7.85847 10.3341 7.94619 10.8792C8.0339 11.4243 8.29127 11.9279 8.68169 12.3183C9.07211 12.7087 9.57569 12.9661 10.1208 13.0538C10.6659 13.1415 11.2248 13.0551 11.718 12.8069C12.2112 12.5587 12.6136 12.1612 12.8679 11.6712C13.1222 11.1811 13.2154 10.6233 13.1345 10.0771C13.0518 9.52001 12.7922 9.00425 12.394 8.60601C11.9958 8.20777 11.48 7.94817 10.9229 7.86556ZM8.52285 6.57881C9.33966 6.15498 10.2693 5.9995 11.1796 6.13449C12.1081 6.27217 12.9677 6.70484 13.6314 7.36857C14.2952 8.03231 14.7278 8.89191 14.8655 9.82042C15.0005 10.7307 14.845 11.6603 14.4212 12.4772C13.9974 13.294 13.3268 13.9563 12.5048 14.3701C11.6828 14.7838 10.7513 14.9278 9.84279 14.7816C8.93426 14.6354 8.09495 14.2064 7.44425 13.5558C6.79356 12.9051 6.36461 12.0658 6.21841 11.1572C6.07221 10.2487 6.21622 9.31718 6.62994 8.49521C7.04367 7.67323 7.70604 7.00264 8.52285 6.57881Z" fill="#84AE61"/>
<path fill-rule="evenodd" clip-rule="evenodd" d="M14.4375 5.6875C14.4375 5.20425 14.8293 4.8125 15.3125 4.8125H15.3212C15.8045 4.8125 16.1962 5.20425 16.1962 5.6875C16.1962 6.17075 15.8045 6.5625 15.3212 6.5625H15.3125C14.8293 6.5625 14.4375 6.17075 14.4375 5.6875Z" fill="#84AE61"/>
</g>
<defs>
<clipPath id="clip0_39_553">
<rect width="21" height="21" fill="white"/>
</clipPath>
</defs>
</svg>
