<svg width="25" height="25" viewBox="0 0 25 25" fill="none" xmlns="http://www.w3.org/2000/svg">
<mask id="path-1-inside-1_69_541" fill="white">
<path d="M9.63146 1.18483C10.4217 0.394586 11.4606 0 12.5 0C13.5394 0 14.5793 0.394586 15.3695 1.18483L23.8147 9.63125C25.3951 11.2117 25.3951 13.789 23.8147 15.3695L15.3685 23.8149C13.7885 25.395 11.2115 25.395 9.63146 23.8149L1.18532 15.3685C-0.395108 13.788 -0.395108 11.2108 1.18532 9.63027L9.63146 1.18483Z"/>
</mask>
<path d="M14.6612 1.89318L15.1916 1.36291L15.1915 1.36286L14.6612 1.89318ZM19.2555 6.48867V7.23867C19.5589 7.23867 19.8323 7.05595 19.9484 6.77572C20.0645 6.49549 20.0004 6.17291 19.7859 5.9584L19.2555 6.48867ZM16.4212 7.36824L15.8912 6.83763L15.8908 6.83799L16.4212 7.36824ZM13.0312 10.7593L13.5616 11.2896L13.5617 11.2896L13.0312 10.7593ZM11.9678 10.7593L11.4374 11.2896L11.4377 11.2899L11.9678 10.7593ZM8.57777 7.36921L8.04715 7.89925L8.04743 7.89954L8.57777 7.36921ZM5.74348 6.48867L5.2132 5.95829C4.99867 6.17278 4.93448 6.49537 5.05056 6.77565C5.16663 7.05592 5.44012 7.23867 5.74348 7.23867V6.48867ZM10.3398 1.89318L10.8701 2.42356L10.8701 2.4235L10.3398 1.89318ZM4.74164 7.49053V6.74053C4.54273 6.74053 4.35196 6.81956 4.2113 6.96021L4.74164 7.49053ZM7.86944 8.07659L7.33882 8.60663L7.33903 8.60683L7.86944 8.07659ZM11.2594 11.4677L10.729 11.9979L10.7294 11.9983L11.2594 11.4677ZM13.7396 11.4677L13.2092 10.9374L13.2092 10.9374L13.7396 11.4677ZM17.1296 8.07757L16.5995 7.54698L16.5992 7.54724L17.1296 8.07757ZM20.2574 7.49053L20.7877 6.96021C20.6471 6.81956 20.4563 6.74053 20.2574 6.74053V7.49053ZM23.1063 10.3396L23.6367 9.80928L23.6367 9.80928L23.1063 10.3396ZM23.1063 14.6611L22.576 14.1308L22.576 14.1308L23.1063 14.6611ZM20.2584 17.5092V18.2592C20.4573 18.2592 20.648 18.1802 20.7887 18.0395L20.2584 17.5092ZM17.1296 16.9222L16.5992 17.4525L16.5995 17.4528L17.1296 16.9222ZM13.7396 13.5321L13.2092 14.0624L13.2092 14.0624L13.7396 13.5321ZM11.2594 13.5321L10.7294 13.0015L10.7291 13.0018L11.2594 13.5321ZM7.86944 16.9222L7.33911 16.3919L7.33884 16.3921L7.86944 16.9222ZM4.74262 17.5092L4.21228 18.0395C4.35294 18.1802 4.5437 18.2592 4.74262 18.2592V17.5092ZM1.89365 14.6602L2.42399 14.1298L2.42399 14.1298L1.89365 14.6602ZM1.89365 10.3386L1.36331 9.8083L1.36331 9.8083L1.89365 10.3386ZM12.5 14.0174L12.5001 13.2674L12.5 14.0174ZM13.0312 14.2404L13.5616 13.7101L13.5616 13.7101L13.0312 14.2404ZM16.4212 17.6305L15.8909 18.1609L15.8912 18.1612L16.4212 17.6305ZM19.2565 18.5111L19.7868 19.0415C20.0013 18.827 20.0655 18.5044 19.9494 18.2241C19.8334 17.9438 19.5599 17.7611 19.2565 17.7611V18.5111ZM14.6602 23.1066L14.1299 22.5762L14.1299 22.5763L14.6602 23.1066ZM10.3398 23.1066L10.8701 22.5763L10.8701 22.5763L10.3398 23.1066ZM5.74446 18.5111V17.7611C5.44111 17.7611 5.16764 17.9438 5.05155 18.2241C4.93546 18.5043 4.99963 18.8269 5.21412 19.0414L5.74446 18.5111ZM8.57777 17.6305L8.04743 17.1002L8.04715 17.1005L8.57777 17.6305ZM11.9678 14.2404L11.4377 13.7098L11.4374 13.7101L11.9678 14.2404ZM12.5 1.74502C13.0888 1.74502 13.6774 1.97004 14.1308 2.4235L15.1915 1.36286C14.4473 0.618617 13.473 0.24502 12.5 0.24502V1.74502ZM14.1308 2.42344L18.7251 7.01893L19.7859 5.9584L15.1916 1.36291L14.1308 2.42344ZM19.2555 5.73867H18.5462V7.23867H19.2555V5.73867ZM18.5462 5.73867C17.5505 5.73867 16.5954 6.13415 15.8912 6.83763L16.9513 7.89884C17.3743 7.47626 17.9481 7.23867 18.5462 7.23867V5.73867ZM15.8908 6.83799L12.5008 10.2291L13.5617 11.2896L16.9517 7.89848L15.8908 6.83799ZM12.5009 10.229C12.4966 10.2333 12.4948 10.2336 12.496 10.2331C12.4968 10.2328 12.4981 10.2325 12.4996 10.2325C12.5011 10.2325 12.5024 10.2328 12.5031 10.2331C12.5042 10.2336 12.5023 10.2332 12.4978 10.2287L11.4377 11.2899C12.0286 11.8802 12.9713 11.8799 13.5616 11.2896L12.5009 10.229ZM12.4981 10.229L9.10811 6.83889L8.04743 7.89954L11.4374 11.2896L12.4981 10.229ZM9.10839 6.83918C8.40494 6.13495 7.44987 5.73867 6.45377 5.73867V7.23867C7.05154 7.23867 7.62489 7.47653 8.04715 7.89925L9.10839 6.83918ZM6.45377 5.73867H5.74348V7.23867H6.45377V5.73867ZM6.27376 7.01904L10.8701 2.42356L9.80951 1.3628L5.2132 5.95829L6.27376 7.01904ZM10.8701 2.4235C11.3237 1.96987 11.9115 1.74502 12.5 1.74502V0.24502C11.5267 0.24502 10.5535 0.618792 9.80945 1.36286L10.8701 2.4235ZM4.74164 8.24053H6.45377V6.74053H4.74164V8.24053ZM6.45377 8.24053C6.78676 8.24053 7.10503 8.37257 7.33882 8.60663L8.40007 7.54655C7.88414 7.03005 7.18376 6.74053 6.45377 6.74053V8.24053ZM7.33903 8.60683L10.729 11.9979L11.7899 10.9374L8.39986 7.54634L7.33903 8.60683ZM10.7294 11.9983C11.7028 12.9707 13.2964 12.9716 14.2699 11.998L13.2092 10.9374C12.822 11.3246 12.1777 11.3249 11.7895 10.9371L10.7294 11.9983ZM14.2699 11.998L17.6599 8.60789L16.5992 7.54724L13.2092 10.9374L14.2699 11.998ZM17.6596 8.60815C17.8955 8.3725 18.2141 8.24053 18.5462 8.24053V6.74053C17.8154 6.74053 17.1158 7.03115 16.5995 7.54698L17.6596 8.60815ZM18.5462 8.24053H20.2574V6.74053H18.5462V8.24053ZM19.727 8.02086L22.576 10.8699L23.6367 9.80928L20.7877 6.96021L19.727 8.02086ZM22.576 10.8699C23.4808 11.7747 23.4808 13.226 22.576 14.1308L23.6367 15.1915C25.1272 13.7009 25.1272 11.2999 23.6367 9.80928L22.576 10.8699ZM22.576 14.1308L19.728 16.9789L20.7887 18.0395L23.6367 15.1915L22.576 14.1308ZM20.2584 16.7592H18.5462V18.2592H20.2584V16.7592ZM18.5462 16.7592C18.2141 16.7592 17.8955 16.6273 17.6596 16.3916L16.5995 17.4528C17.1158 17.9686 17.8154 18.2592 18.5462 18.2592V16.7592ZM17.6599 16.3919L14.2699 13.0018L13.2092 14.0624L16.5992 17.4525L17.6599 16.3919ZM14.2699 13.0018C13.7812 12.513 13.1373 12.2723 12.5 12.2723L12.5 13.7723C12.7622 13.7723 13.0175 13.8707 13.2092 14.0624L14.2699 13.0018ZM12.5 12.2723C11.8629 12.2723 11.2183 12.5131 10.7294 13.0015L11.7895 14.0627C11.9814 13.871 12.2377 13.7723 12.5 13.7723L12.5 12.2723ZM10.7291 13.0018L7.33911 16.3919L8.39978 17.4525L11.7898 14.0624L10.7291 13.0018ZM7.33884 16.3921C7.10436 16.6269 6.7858 16.7592 6.45377 16.7592V18.2592C7.18472 18.2592 7.88481 17.968 8.40005 17.4522L7.33884 16.3921ZM6.45377 16.7592H4.74262V18.2592H6.45377V16.7592ZM5.27296 16.9789L2.42399 14.1298L1.36331 15.1905L4.21228 18.0395L5.27296 16.9789ZM2.42399 14.1298C1.51921 13.225 1.51921 11.7737 2.42399 10.8689L1.36331 9.8083C-0.127227 11.2989 -0.127227 13.6999 1.36331 15.1905L2.42399 14.1298ZM2.42399 10.8689L5.27198 8.02086L4.2113 6.96021L1.36331 9.8083L2.42399 10.8689ZM12.4999 14.7674C12.4984 14.7674 12.497 14.767 12.4961 14.7667C12.4948 14.7661 12.4966 14.7664 12.5009 14.7708L13.5616 13.7101C13.2706 13.4191 12.888 13.2674 12.5001 13.2674L12.4999 14.7674ZM12.5009 14.7708L15.8909 18.1609L16.9516 17.1002L13.5616 13.7101L12.5009 14.7708ZM15.8912 18.1612C16.595 18.8642 17.5498 19.2611 18.5462 19.2611V17.7611C17.9488 17.7611 17.3748 17.5229 16.9513 17.0999L15.8912 18.1612ZM18.5462 19.2611H19.2565V17.7611H18.5462V19.2611ZM18.7262 17.9807L14.1299 22.5762L15.1905 23.637L19.7868 19.0415L18.7262 17.9807ZM14.1299 22.5763C13.2257 23.4804 11.7743 23.4804 10.8701 22.5763L9.80945 23.6369C11.2994 25.1269 13.7006 25.1269 15.1905 23.6369L14.1299 22.5763ZM10.8701 22.5763L6.2748 17.9808L5.21412 19.0414L9.80945 23.6369L10.8701 22.5763ZM5.74446 19.2611H6.45377V17.7611H5.74446V19.2611ZM6.45377 19.2611C7.44987 19.2611 8.40495 18.8648 9.1084 18.1606L8.04715 17.1005C7.62489 17.5232 7.05154 17.7611 6.45377 17.7611V19.2611ZM9.10811 18.1609L12.4981 14.7708L11.4374 13.7101L8.04743 17.1002L9.10811 18.1609ZM12.4978 14.771C12.5021 14.7668 12.5039 14.7664 12.5029 14.7668C12.5023 14.7671 12.5012 14.7674 12.4999 14.7674L12.5001 13.2674C12.1128 13.2673 11.7294 13.4184 11.4377 13.7098L12.4978 14.771ZM9.63146 1.18483L10.6921 2.24553L10.6921 2.24547L9.63146 1.18483ZM1.18532 9.63027L0.124707 8.56956L0.124645 8.56963L1.18532 9.63027ZM1.18532 15.3685L2.246 14.3079L2.246 14.3079L1.18532 15.3685ZM9.63146 23.8149L8.57078 24.8756L9.63146 23.8149ZM15.3685 23.8149L14.3079 22.7542L14.3079 22.7543L15.3685 23.8149ZM23.8147 15.3695L24.8753 16.4302L24.8754 16.4301L23.8147 15.3695ZM23.8147 9.63125L22.7539 10.6918L22.754 10.6919L23.8147 9.63125ZM15.3695 1.18483L16.4303 0.124246L16.4302 0.124184L15.3695 1.18483ZM12.5 -1.5C11.0815 -1.5 9.6553 -0.960369 8.57078 0.124185L10.6921 2.24547C11.1881 1.74954 11.8396 1.5 12.5 1.5V-1.5ZM8.57085 0.124123L0.124707 8.56956L2.24594 10.691L10.6921 2.24553L8.57085 0.124123ZM0.124645 8.56963C-2.04155 10.7359 -2.04155 14.2629 0.124645 16.4292L2.246 14.3079C1.25133 13.3132 1.25133 11.6856 2.246 10.6909L0.124645 8.56963ZM0.124645 16.4292L8.57078 24.8756L10.6921 22.7543L2.246 14.3079L0.124645 16.4292ZM8.57078 24.8756C10.7366 27.0415 14.2634 27.0415 16.4292 24.8756L14.3079 22.7543C13.3136 23.7486 11.6864 23.7486 10.6921 22.7543L8.57078 24.8756ZM16.4292 24.8756L24.8753 16.4302L22.7541 14.3088L14.3079 22.7542L16.4292 24.8756ZM24.8754 16.4301C27.0415 14.2639 27.0415 10.7369 24.8754 8.5706L22.754 10.6919C23.7487 11.6866 23.7487 13.3141 22.754 14.3088L24.8754 16.4301ZM24.8754 8.57066L16.4303 0.124246L14.3088 2.24541L22.7539 10.6918L24.8754 8.57066ZM16.4302 0.124184C15.3454 -0.96063 13.9181 -1.5 12.5 -1.5V1.5C13.1607 1.5 13.8132 1.7498 14.3088 2.24547L16.4302 0.124184Z" fill="black" mask="url(#path-1-inside-1_69_541)"/>
</svg>
