<svg width="20" height="20" viewBox="0 0 20 20" fill="none" xmlns="http://www.w3.org/2000/svg">
<path d="M10.0117 0C4.50572 0 0.0234901 4.47838 0.0214901 9.98438C0.0204901 11.7444 0.48147 13.4626 1.35547 14.9766L0 20L5.23242 18.7637C6.69142 19.5597 8.33386 19.9775 10.0059 19.9785H10.0098C15.5148 19.9785 19.9951 15.4992 19.9981 9.99415C20.0001 7.32515 18.9622 4.81574 17.0762 2.92774C15.1902 1.04074 12.6837 0.001 10.0117 0ZM10.0098 2C12.1458 2.001 14.1531 2.8338 15.6621 4.3418C17.1711 5.8518 18.0001 7.85819 17.9981 9.99219C17.9961 14.3962 14.4138 17.9785 10.0078 17.9785C8.67482 17.9775 7.35441 17.6428 6.19141 17.0078L5.51758 16.6406L4.77344 16.8164L2.80469 17.2813L3.28516 15.4961L3.50196 14.6953L3.0879 13.9766C2.3899 12.7686 2.02049 11.3874 2.02149 9.98437C2.02349 5.58237 5.60677 2 10.0098 2ZM6.47656 5.375C6.30956 5.375 6.03954 5.4375 5.81054 5.6875C5.58154 5.9365 4.93554 6.53958 4.93554 7.76758C4.93554 8.99558 5.83007 10.1826 5.95507 10.3496C6.07907 10.5156 7.68174 13.1152 10.2187 14.1152C12.3267 14.9462 12.7549 14.7822 13.2129 14.7402C13.6709 14.6992 14.6904 14.1377 14.8984 13.5547C15.1064 12.9717 15.1069 12.4702 15.0449 12.3672C14.9829 12.2632 14.8164 12.2012 14.5664 12.0762C14.3174 11.9512 13.0903 11.3486 12.8613 11.2656C12.6323 11.1826 12.4648 11.1406 12.2988 11.3906C12.1328 11.6406 11.6558 12.2012 11.5098 12.3672C11.3638 12.5342 11.2187 12.5566 10.9687 12.4316C10.7187 12.3056 9.91492 12.0414 8.96092 11.1914C8.21892 10.5304 7.71825 9.71483 7.57225 9.46483C7.42725 9.21583 7.55858 9.07906 7.68358 8.95506C7.79558 8.84306 7.93163 8.66356 8.05663 8.51756C8.18063 8.37156 8.22363 8.26754 8.30663 8.10154C8.38963 7.93554 8.34714 7.78904 8.28514 7.66404C8.22314 7.53904 7.73761 6.30648 7.51561 5.81248C7.32861 5.39748 7.13111 5.38784 6.95311 5.38084C6.80811 5.37484 6.64256 5.375 6.47656 5.375Z" fill="white"/>
</svg>
